#Comment line ignore any data following # character 
#Hierarchical Translation and Rotation (.htr) file 
[Header]	
#Header keywords are followed by a single value 
FileType HTR		#Single word string
DataType HTRS		#Translation followed by rotation and scale data
FileVersion 1		#integer
NumSegments 84		#integer
NumFrames 2		#integer
DataFrameRate 30		#integer, data frame rate in this file
EulerRotationOrder ZYX
CalibrationUnits mm
RotationUnits Degrees
GlobalAxisofGravity Y
BoneLengthAxis Y
ScaleFactor 1.00
[SegmentNames&Hierarchy]
#CHILD	PARENT
MASTER GLOBAL
root MASTER
chest root
L_mid_tent01 root
R_mid_tent01 root
spine01 root
Bip01_Neck chest
L_humerus chest
R_humerus chest
weapon_bone chest
Bip01_Head Bip01_Neck
eye_left_bone Bip01_Head
eye_right_bone Bip01_Head
L_forearm L_humerus
L_front_hand L_forearm
L_weapon_bone L_forearm
L_front_hand01_01 L_front_hand
L_front_hand02_01 L_front_hand
L_front_hand03_01 L_front_hand
L_front_hand01_02 L_front_hand01_01
L_front_hand02_02 L_front_hand02_01
L_front_hand03_02 L_front_hand03_01
R_forearm R_humerus
R_front_hand R_forearm
R_weapon_bone R_forearm
R_front_hand01_01 R_front_hand
R_front_hand02_01 R_front_hand
R_front_hand03_01 R_front_hand
R_front_hand01_02 R_front_hand01_01
R_front_hand02_02 R_front_hand02_01
R_front_hand03_02 R_front_hand03_01
null_rope01_connect L_mid_tent01
Rope1_Seg01 null_rope01_connect
Rope1_Seg02 Rope1_Seg01
Rope1_Seg03 Rope1_Seg02
Rope1_Seg04 Rope1_Seg03
Rope1_Seg05 Rope1_Seg04
Rope1_Seg06 Rope1_Seg05
Rope1_Seg07 Rope1_Seg06
Rope1_Seg09 Rope1_Seg07
L_mid_hand01 Rope1_Seg09
L_mid_hand02 Rope1_Seg09
L_mid_hand03 Rope1_Seg09
null_rope02_connect R_mid_tent01
Rope2_Seg01 null_rope02_connect
Rope2_Seg02 Rope2_Seg01
Rope2_Seg03 Rope2_Seg02
Rope2_Seg04 Rope2_Seg03
Rope2_Seg05 Rope2_Seg04
Rope2_Seg06 Rope2_Seg05
Rope2_Seg07 Rope2_Seg06
Rope2_Seg09 Rope2_Seg07
R_mid_hand01 Rope2_Seg09
R_mid_hand02 Rope2_Seg09
R_mid_hand03 Rope2_Seg09
spine02 spine01
spine03 spine02
pelvis spine03
null_rope03_connect pelvis
null_rope04_connect pelvis
Rope3_Seg01 null_rope03_connect
Rope3_Seg02 Rope3_Seg01
Rope3_Seg03 Rope3_Seg02
Rope3_Seg04 Rope3_Seg03
Rope3_Seg05 Rope3_Seg04
Rope3_Seg06 Rope3_Seg05
Rope3_Seg07 Rope3_Seg06
Rope3_Seg08 Rope3_Seg07
Rope3_Seg09 Rope3_Seg08
R_rear_hand01 Rope3_Seg09
R_rear_hand02 Rope3_Seg09
R_rear_hand03 Rope3_Seg09
Rope4_Seg01 null_rope04_connect
Rope4_Seg02 Rope4_Seg01
Rope4_Seg03 Rope4_Seg02
Rope4_Seg04 Rope4_Seg03
Rope4_Seg05 Rope4_Seg04
Rope4_Seg06 Rope4_Seg05
Rope4_Seg07 Rope4_Seg06
Rope4_Seg08 Rope4_Seg07
Rope4_Seg09 Rope4_Seg08
L_rear_hand01 Rope4_Seg09
L_rear_hand02 Rope4_Seg09
L_rear_hand03 Rope4_Seg09
[BasePosition]
#SegmentName Tx, Ty, Tz, Rx, Ry, Rz, BoneLength
MASTER 0.000000 0.000000 0.000000 -90.000000 0.000000 0.000000 10.000000 
root 0.000000 0.000000 0.000000 0.000000 0.000000 0.000000 10.000000 
chest 0.000000 0.000000 0.000000 0.000000 0.000000 0.000000 10.000000 
L_mid_tent01 0.000000 0.000000 0.000000 0.000000 0.000000 0.000000 10.000000 
R_mid_tent01 0.000000 0.000000 0.000000 0.000000 0.000000 0.000000 10.000000 
spine01 0.000000 0.000000 0.000000 0.000000 0.000000 0.000000 10.000000 
Bip01_Neck 0.000000 0.000000 0.000000 0.000000 0.000000 0.000000 10.000000 
L_humerus 0.000000 0.000000 0.000000 0.000000 0.000000 0.000000 10.000000 
R_humerus 0.000000 0.000000 0.000000 0.000000 0.000000 0.000000 10.000000 
weapon_bone 0.000000 0.000000 0.000000 0.000000 0.000000 0.000000 10.000000 
Bip01_Head 0.000000 0.000000 0.000000 0.000000 0.000000 0.000000 10.000000 
eye_left_bone 0.000000 0.000000 0.000000 0.000000 0.000000 0.000000 10.000000 
eye_right_bone 0.000000 0.000000 0.000000 0.000000 0.000000 0.000000 10.000000 
L_forearm 0.000000 0.000000 0.000000 0.000000 0.000000 0.000000 10.000000 
L_front_hand 0.000000 0.000000 0.000000 0.000000 0.000000 0.000000 10.000000 
L_weapon_bone 0.000000 0.000000 0.000000 0.000000 0.000000 0.000000 10.000000 
L_front_hand01_01 0.000000 0.000000 0.000000 0.000000 0.000000 0.000000 10.000000 
L_front_hand02_01 0.000000 0.000000 0.000000 0.000000 0.000000 0.000000 10.000000 
L_front_hand03_01 0.000000 0.000000 0.000000 0.000000 0.000000 0.000000 10.000000 
L_front_hand01_02 0.000000 0.000000 0.000000 0.000000 0.000000 0.000000 10.000000 
L_front_hand02_02 0.000000 0.000000 0.000000 0.000000 0.000000 0.000000 10.000000 
L_front_hand03_02 0.000000 0.000000 0.000000 0.000000 0.000000 0.000000 10.000000 
R_forearm 0.000000 0.000000 0.000000 0.000000 0.000000 0.000000 10.000000 
R_front_hand 0.000000 0.000000 0.000000 0.000000 0.000000 0.000000 10.000000 
R_weapon_bone 0.000000 0.000000 0.000000 0.000000 0.000000 0.000000 10.000000 
R_front_hand01_01 0.000000 0.000000 0.000000 0.000000 0.000000 0.000000 10.000000 
R_front_hand02_01 0.000000 0.000000 0.000000 0.000000 0.000000 0.000000 10.000000 
R_front_hand03_01 0.000000 0.000000 0.000000 0.000000 0.000000 0.000000 10.000000 
R_front_hand01_02 0.000000 0.000000 0.000000 0.000000 0.000000 0.000000 10.000000 
R_front_hand02_02 0.000000 0.000000 0.000000 0.000000 0.000000 0.000000 10.000000 
R_front_hand03_02 0.000000 0.000000 0.000000 0.000000 0.000000 0.000000 10.000000 
null_rope01_connect 0.000000 0.000000 0.000000 0.000000 0.000000 0.000000 10.000000 
Rope1_Seg01 0.000000 0.000000 0.000000 0.000000 0.000000 0.000000 10.000000 
Rope1_Seg02 0.000000 0.000000 0.000000 0.000000 0.000000 0.000000 10.000000 
Rope1_Seg03 0.000000 0.000000 0.000000 0.000000 0.000000 0.000000 10.000000 
Rope1_Seg04 0.000000 0.000000 0.000000 0.000000 0.000000 0.000000 10.000000 
Rope1_Seg05 0.000000 0.000000 0.000000 0.000000 0.000000 0.000000 10.000000 
Rope1_Seg06 0.000000 0.000000 0.000000 0.000000 0.000000 0.000000 10.000000 
Rope1_Seg07 0.000000 0.000000 0.000000 0.000000 0.000000 0.000000 10.000000 
Rope1_Seg09 0.000000 0.000000 0.000000 0.000000 0.000000 0.000000 10.000000 
L_mid_hand01 0.000000 0.000000 0.000000 0.000000 0.000000 0.000000 10.000000 
L_mid_hand02 0.000000 0.000000 0.000000 0.000000 0.000000 0.000000 10.000000 
L_mid_hand03 0.000000 0.000000 0.000000 0.000000 0.000000 0.000000 10.000000 
null_rope02_connect 0.000000 0.000000 0.000000 0.000000 0.000000 0.000000 10.000000 
Rope2_Seg01 0.000000 0.000000 0.000000 0.000000 0.000000 0.000000 10.000000 
Rope2_Seg02 0.000000 0.000000 0.000000 0.000000 0.000000 0.000000 10.000000 
Rope2_Seg03 0.000000 0.000000 0.000000 0.000000 0.000000 0.000000 10.000000 
Rope2_Seg04 0.000000 0.000000 0.000000 0.000000 0.000000 0.000000 10.000000 
Rope2_Seg05 0.000000 0.000000 0.000000 0.000000 0.000000 0.000000 10.000000 
Rope2_Seg06 0.000000 0.000000 0.000000 0.000000 0.000000 0.000000 10.000000 
Rope2_Seg07 0.000000 0.000000 0.000000 0.000000 0.000000 0.000000 10.000000 
Rope2_Seg09 0.000000 0.000000 0.000000 0.000000 0.000000 0.000000 10.000000 
R_mid_hand01 0.000000 0.000000 0.000000 0.000000 0.000000 0.000000 10.000000 
R_mid_hand02 0.000000 0.000000 0.000000 0.000000 0.000000 0.000000 10.000000 
R_mid_hand03 0.000000 0.000000 0.000000 0.000000 0.000000 0.000000 10.000000 
spine02 0.000000 0.000000 0.000000 0.000000 0.000000 0.000000 10.000000 
spine03 0.000000 0.000000 0.000000 0.000000 0.000000 0.000000 10.000000 
pelvis 0.000000 0.000000 0.000000 0.000000 0.000000 0.000000 10.000000 
null_rope03_connect 0.000000 0.000000 0.000000 0.000000 0.000000 0.000000 10.000000 
null_rope04_connect 0.000000 0.000000 0.000000 0.000000 0.000000 0.000000 10.000000 
Rope3_Seg01 0.000000 0.000000 0.000000 0.000000 0.000000 0.000000 10.000000 
Rope3_Seg02 0.000000 0.000000 0.000000 0.000000 0.000000 0.000000 10.000000 
Rope3_Seg03 0.000000 0.000000 0.000000 0.000000 0.000000 0.000000 10.000000 
Rope3_Seg04 0.000000 0.000000 0.000000 0.000000 0.000000 0.000000 10.000000 
Rope3_Seg05 0.000000 0.000000 0.000000 0.000000 0.000000 0.000000 10.000000 
Rope3_Seg06 0.000000 0.000000 0.000000 0.000000 0.000000 0.000000 10.000000 
Rope3_Seg07 0.000000 0.000000 0.000000 0.000000 0.000000 0.000000 10.000000 
Rope3_Seg08 0.000000 0.000000 0.000000 0.000000 0.000000 0.000000 10.000000 
Rope3_Seg09 0.000000 0.000000 0.000000 0.000000 0.000000 0.000000 10.000000 
R_rear_hand01 0.000000 0.000000 0.000000 0.000000 0.000000 0.000000 10.000000 
R_rear_hand02 0.000000 0.000000 0.000000 0.000000 0.000000 0.000000 10.000000 
R_rear_hand03 0.000000 0.000000 0.000000 0.000000 0.000000 0.000000 10.000000 
Rope4_Seg01 0.000000 0.000000 0.000000 0.000000 0.000000 0.000000 10.000000 
Rope4_Seg02 0.000000 0.000000 0.000000 0.000000 0.000000 0.000000 10.000000 
Rope4_Seg03 0.000000 0.000000 0.000000 0.000000 0.000000 0.000000 10.000000 
Rope4_Seg04 0.000000 0.000000 0.000000 0.000000 0.000000 0.000000 10.000000 
Rope4_Seg05 0.000000 0.000000 0.000000 0.000000 0.000000 0.000000 10.000000 
Rope4_Seg06 0.000000 0.000000 0.000000 0.000000 0.000000 0.000000 10.000000 
Rope4_Seg07 0.000000 0.000000 0.000000 0.000000 0.000000 0.000000 10.000000 
Rope4_Seg08 0.000000 0.000000 0.000000 0.000000 0.000000 0.000000 10.000000 
Rope4_Seg09 0.000000 0.000000 0.000000 0.000000 0.000000 0.000000 10.000000 
L_rear_hand01 0.000000 0.000000 0.000000 0.000000 0.000000 0.000000 10.000000 
L_rear_hand02 0.000000 0.000000 0.000000 0.000000 0.000000 0.000000 10.000000 
L_rear_hand03 0.000000 0.000000 0.000000 0.000000 0.000000 0.000000 10.000000 
#Beginning of Data. Separated by tabs
#Fr	Tx	Ty	Tz	Rx	Ry	Rz	SF
[MASTER]
55 -342.209930 -1848.087646 0.275945 0.001660 0.001660 0.001660 1879.504028
56 -340.163849 -1901.611572 0.301175 0.001660 0.001660 0.001660 1931.796631
[root]
55 -16.502304 -62.822109 1356.961914 -74.572395 -29.390196 -99.255501 1358.515625
56 -16.502304 -62.822109 1377.218750 -77.108803 -26.983669 -97.466476 1378.749512
[chest]
55 -84.512650 -34.090519 0.000000 -1.465758 0.554591 172.740280 91.129311
56 -84.512650 -34.090519 0.000000 -1.763605 0.586875 172.187836 91.129311
[L_mid_tent01]
55 27.299480 22.177620 -249.918274 3.163261 41.100704 72.932785 252.381165
56 27.299480 22.177622 -249.918274 0.740592 38.835297 69.556519 252.381165
[R_mid_tent01]
55 23.228794 24.509907 226.238495 172.956314 -30.706421 60.224804 228.744751
56 23.228794 24.509907 226.238495 173.438690 -30.806667 59.282585 228.744751
[spine01]
55 -0.361383 -0.195265 0.000000 0.001845 0.001451 13.654368 0.410763
56 -0.361383 -0.195265 0.000000 0.001845 0.001451 13.654368 0.410763
[Bip01_Neck]
55 165.484543 71.581718 0.000119 176.643677 -1.657967 43.431911 180.302734
56 165.484543 71.581718 0.000119 176.643677 -1.657967 43.431911 180.302734
[L_humerus]
55 -13.983130 -135.272980 -120.471481 -178.511948 12.752419 -87.739128 181.680161
56 -13.983130 -135.272980 -120.471481 -178.975159 15.386250 -88.187569 181.680161
[R_humerus]
55 -13.983309 -135.273102 125.287651 -173.554214 -2.461986 -99.397667 184.909012
56 -13.983309 -135.273102 125.287651 -173.092346 -5.319768 -99.462059 184.909012
[weapon_bone]
55 235.964890 -300.705902 0.000000 0.000000 -89.951546 -128.212341 382.234833
56 235.964890 -300.705902 0.000000 0.000000 -89.951546 -128.212341 382.234833
[Bip01_Head]
55 213.444458 185.715576 11.776995 -19.051033 -11.645036 -27.967249 283.173981
56 213.444458 185.715576 11.776995 -19.199038 -11.695999 -30.316385 283.173981
[eye_left_bone]
55 -24.626970 125.451866 -64.772606 0.000000 -90.000000 -99.840431 143.318359
56 -24.626970 125.451866 -64.772606 0.000000 -90.000000 -99.840431 143.318359
[eye_right_bone]
55 -24.626970 125.451866 64.327362 0.000000 -89.965736 80.156380 143.117676
56 -24.626970 125.451866 64.327362 0.000000 -89.965736 80.156380 143.117676
[L_forearm]
55 322.776093 0.000000 -0.000119 0.000121 -0.002344 -95.894089 322.776093
56 322.776093 0.000000 -0.000119 0.000119 -0.002344 -95.834129 322.776093
[L_front_hand]
55 241.149185 -0.042021 -3.300071 149.893951 -1.837326 -27.423067 241.171753
56 241.149185 -0.042021 -3.300071 149.893951 -1.837326 -27.423067 241.171753
[L_weapon_bone]
55 156.183838 0.000000 0.000000 0.000014 0.000007 0.000001 156.183838
56 156.183838 0.000000 0.000000 0.000014 0.000007 0.000001 156.183838
[L_front_hand01_01]
55 86.095154 20.947098 -0.655860 -0.366594 -0.477154 75.385574 88.609184
56 86.095154 20.947098 -0.655860 -0.366594 -0.477154 75.385574 88.609184
[L_front_hand02_01]
55 86.935165 -11.437475 24.513514 154.399811 -59.883842 -61.369587 91.046425
56 86.935165 -11.437475 24.513514 154.399796 -59.883835 -61.369587 91.046425
[L_front_hand03_01]
55 86.637497 -14.123976 -20.424902 -153.913864 58.118130 -62.702873 90.126129
56 86.637497 -14.123976 -20.424902 -153.913849 58.118130 -62.702866 90.126129
[L_front_hand01_02]
55 71.020905 -0.000179 0.000030 0.000334 -0.002323 -106.379684 71.020905
56 71.020905 -0.000179 0.000030 0.000334 -0.002323 -106.379684 71.020905
[L_front_hand02_02]
55 71.020927 -0.000119 0.000060 0.000334 -0.002323 -106.379684 71.020927
56 71.020927 -0.000119 0.000060 0.000334 -0.002323 -106.379684 71.020927
[L_front_hand03_02]
55 71.020905 -0.000060 0.000060 0.000334 -0.002323 -106.379684 71.020905
56 71.020905 -0.000060 0.000060 0.000334 -0.002323 -106.379684 71.020905
[R_forearm]
55 322.776428 -0.000060 0.000030 0.210593 -0.040579 -80.034492 322.776428
56 322.776428 -0.000060 0.000030 0.209785 -0.006380 -89.052948 322.776428
[R_front_hand]
55 238.847015 -0.006795 2.210259 -8.879457 -10.642941 -26.315098 238.857239
56 238.847015 -0.006795 2.210259 -8.879457 -10.642941 -26.315098 238.857239
[R_weapon_bone]
55 155.664093 0.002503 -0.000030 0.003487 0.001180 -90.988930 155.664078
56 155.664093 0.002503 -0.000030 0.003487 0.001180 -90.988930 155.664078
[R_front_hand01_01]
55 87.624611 14.231146 22.918642 -154.633514 -59.950634 61.746063 91.683487
56 87.624611 14.231146 22.918642 -154.633484 -59.950619 61.746037 91.683487
[R_front_hand02_01]
55 89.356956 14.367283 -19.491137 154.602676 58.302864 63.744389 92.579636
56 89.356956 14.367283 -19.491137 154.602661 58.302849 63.744389 92.579636
[R_front_hand03_01]
55 87.286232 -22.307278 -0.143439 0.162155 -0.423168 -75.767921 90.091743
56 87.286232 -22.307278 -0.143439 0.162155 -0.423168 -75.767921 90.091743
[R_front_hand01_02]
55 71.020905 0.000060 0.000119 0.002323 -0.000334 106.381714 71.020905
56 71.020905 0.000060 0.000119 0.002323 -0.000334 106.381714 71.020905
[R_front_hand02_02]
55 71.020844 -0.000030 -0.000119 0.002323 -0.000334 106.381714 71.020836
56 71.020844 -0.000030 -0.000119 0.002323 -0.000334 106.381714 71.020836
[R_front_hand03_02]
55 71.020905 0.000000 0.000030 0.002323 -0.000334 106.381714 71.020905
56 71.020905 0.000000 0.000030 0.002323 -0.000334 106.381714 71.020905
[null_rope01_connect]
55 328.732483 0.000000 -0.000238 -111.947960 -54.216106 156.420486 328.732483
56 328.732483 0.000000 -0.000238 -116.386765 -56.287113 161.464279 328.732483
[Rope1_Seg01]
55 -0.000024 0.000010 0.000038 117.062134 12.533915 177.640686 0.000046
56 -0.000024 0.000009 0.000036 117.358986 13.101804 176.992996 0.000044
[Rope1_Seg02]
55 139.999863 -0.000179 0.000000 12.964809 -13.303201 -14.214883 139.999863
56 139.999863 -0.000179 0.000000 11.049874 -10.979551 -12.773906 139.999863
[Rope1_Seg03]
55 139.999924 0.000060 -0.000060 15.594920 -16.650547 -16.804188 139.999924
56 139.999924 0.000060 -0.000060 12.675323 -11.679685 -14.458413 139.999924
[Rope1_Seg04]
55 139.999924 -0.000060 -0.000119 7.917810 -16.650352 -5.804380 139.999924
56 139.999924 -0.000060 -0.000119 8.767277 -13.533825 -6.872076 139.999924
[Rope1_Seg05]
55 139.999832 0.000119 -0.000060 -0.897917 -14.839445 11.794803 139.999832
56 139.999832 0.000119 -0.000060 0.089400 -17.047928 10.710886 139.999832
[Rope1_Seg06]
55 139.999954 0.000119 -0.000060 -0.859266 -9.876908 7.706647 139.999954
56 139.999954 0.000119 -0.000060 -0.709028 -11.166268 7.565135 139.999954
[Rope1_Seg07]
55 139.999985 0.000060 0.000000 -0.690273 -5.857939 3.548664 139.999985
56 139.999985 0.000060 0.000000 -0.580695 -6.243641 3.317684 139.999985
[Rope1_Seg09]
55 121.602913 0.000119 -0.000089 -89.793175 -1.359789 0.847147 121.602913
56 121.602913 0.000119 -0.000089 -89.793175 -1.359789 0.847147 121.602913
[L_mid_hand01]
55 103.859421 1.038730 8.195221 130.544373 -67.584534 -38.866943 104.187431
56 103.859421 1.038730 8.195221 130.544373 -67.584534 -38.866943 104.187431
[L_mid_hand02]
55 105.572853 -4.139662 -10.864139 -168.923172 43.409309 -73.498886 106.211075
56 105.572853 -4.139662 -10.864139 -168.923172 43.409309 -73.498886 106.211075
[L_mid_hand03]
55 104.641464 17.579376 -3.913581 -6.012627 17.808174 74.893669 106.179977
56 104.641464 17.579376 -3.913581 -6.012627 17.808174 74.893669 106.179977
[null_rope02_connect]
55 328.732849 0.000179 -0.000119 -125.407532 54.027473 -11.377240 328.732849
56 328.732849 0.000179 -0.000119 -125.521049 54.624886 -9.002948 328.732849
[Rope2_Seg01]
55 0.000067 0.000038 0.000000 -42.145939 14.431198 -31.234745 0.000077
56 0.000067 0.000036 0.000000 -62.516113 18.571625 -30.445774 0.000076
[Rope2_Seg02]
55 139.999741 -0.000060 -0.000119 -44.577442 1.205127 21.053061 139.999756
56 139.999741 -0.000060 -0.000119 -29.924896 -7.429235 19.834646 139.999756
[Rope2_Seg03]
55 140.000107 0.000030 0.000000 -14.428742 -17.270458 21.467205 140.000107
56 140.000107 0.000030 0.000000 -9.865651 -19.188612 17.937220 140.000107
[Rope2_Seg04]
55 139.999802 0.000000 -0.000060 -4.862890 -14.671316 14.029242 139.999802
56 139.999802 0.000000 -0.000060 -3.712028 -14.692572 12.265676 139.999802
[Rope2_Seg05]
55 139.999985 -0.000060 0.000119 -0.535382 -10.280856 4.972347 139.999985
56 139.999985 -0.000060 0.000119 -0.350356 -10.263568 4.249877 139.999985
[Rope2_Seg06]
55 139.999893 -0.000030 -0.000119 -0.197287 -11.201622 1.775276 139.999893
56 139.999893 -0.000030 -0.000119 -0.190653 -11.018145 1.118133 139.999893
[Rope2_Seg07]
55 139.999893 0.000060 -0.000060 -0.636688 -9.785032 1.599960 139.999893
56 139.999893 0.000060 -0.000060 -0.681930 -9.489280 1.060760 139.999893
[Rope2_Seg09]
55 121.338966 0.000089 -0.000060 33.793236 -1.359788 -0.847141 121.338966
56 121.338966 0.000089 -0.000060 33.793236 -1.359788 -0.847141 121.338966
[R_mid_hand01]
55 104.680779 11.144459 -10.335981 -16.212063 45.237247 70.462852 105.778534
56 104.680779 11.144459 -10.335981 -16.212063 45.237247 70.462852 105.778534
[R_mid_hand02]
55 104.070427 2.443552 8.231699 49.067368 -67.749771 39.286453 104.424065
56 104.070427 2.443552 8.231699 49.067368 -67.749771 39.286453 104.424065
[R_mid_hand03]
55 106.028137 -11.221827 -5.996406 -177.101105 15.551026 -76.585571 106.788818
56 106.028137 -11.221827 -5.996406 -177.101105 15.551026 -76.585571 106.788818
[spine02]
55 129.756927 0.001550 0.000119 -1.023899 -3.926965 6.770993 129.756927
56 129.756927 0.001550 0.000119 -1.023899 -3.926965 6.770993 129.756927
[spine03]
55 78.613846 0.087372 -4.898873 1.040681 4.146420 4.212376 78.766380
56 78.613846 0.087372 -4.898873 1.040680 4.146419 4.212375 78.766380
[pelvis]
55 169.435242 0.051022 0.000000 0.019518 -0.190233 -10.721436 169.435257
56 169.435242 0.051022 0.000000 0.019518 -0.190233 -10.721436 169.435257
[null_rope03_connect]
55 -1.257226 -2.466202 137.391083 -7.196461 -76.760368 113.818398 137.418976
56 -1.257226 -2.466202 137.391083 -8.354483 -78.685204 112.235382 137.418976
[null_rope04_connect]
55 -1.259640 -2.480268 -137.844437 -7.196461 -76.760368 113.818398 137.872513
56 -1.259640 -2.480268 -137.844437 -8.354483 -78.685204 112.235382 137.872513
[Rope3_Seg01]
55 -0.000021 0.000210 -0.000114 -141.805786 -27.622244 -55.391384 0.000240
56 -0.000021 0.000215 -0.000117 -139.782410 -23.351881 -55.058186 0.000246
[Rope3_Seg02]
55 139.999924 -0.000119 0.000060 -15.787815 -0.000049 -29.729464 139.999924
56 139.999924 -0.000119 0.000060 -14.726189 -0.212868 -28.808754 139.999924
[Rope3_Seg03]
55 139.999924 -0.000119 0.000119 -56.413330 11.511012 -35.163219 139.999924
56 139.999924 -0.000119 0.000119 -57.148602 11.337770 -36.138622 139.999924
[Rope3_Seg04]
55 139.999924 0.000119 0.000000 -46.394623 31.293898 -19.709454 139.999924
56 139.999924 0.000119 0.000000 -46.291664 29.315763 -19.956314 139.999924
[Rope3_Seg05]
55 139.999924 -0.000238 0.000060 -7.503049 15.743410 2.325505 139.999924
56 139.999924 -0.000238 0.000060 -8.366862 14.812364 1.177516 139.999924
[Rope3_Seg06]
55 139.999893 -0.000119 -0.000060 -1.239758 5.241148 1.762061 139.999893
56 139.999893 -0.000119 -0.000060 -1.511436 5.063591 1.499375 139.999893
[Rope3_Seg07]
55 139.999771 0.000060 -0.000119 -0.314882 3.071558 1.111365 139.999771
56 139.999771 0.000060 -0.000119 -0.472638 2.988399 0.973877 139.999771
[Rope3_Seg08]
55 139.999985 -0.000060 0.000000 0.110601 1.761794 0.651323 139.999985
56 139.999985 -0.000060 0.000000 0.020207 1.722743 0.575733 139.999985
[Rope3_Seg09]
55 90.185997 -0.000179 -0.000060 89.793228 -1.359877 -0.847183 90.185997
56 90.185997 -0.000179 -0.000060 89.793228 -1.359877 -0.847183 90.185997
[R_rear_hand01]
55 103.366196 -6.073594 -10.757982 -177.714203 24.565960 -73.910950 104.101845
56 103.366196 -6.073594 -10.757982 -177.714203 24.565960 -73.910950 104.101845
[R_rear_hand02]
55 100.509819 12.039542 -7.992327 -12.874829 36.868488 72.167213 101.543350
56 100.509819 12.039542 -7.992327 -12.874829 36.868488 72.167213 101.543350
[R_rear_hand03]
55 101.539970 5.215704 5.435467 71.484581 -71.816628 21.513813 101.819031
56 101.539970 5.215704 5.435467 71.484581 -71.816628 21.513813 101.819031
[Rope4_Seg01]
55 0.000000 0.000000 0.000000 87.448227 -37.909485 -156.390717 0.000000
56 0.000000 0.000000 0.000000 85.397591 -38.809673 -153.348450 0.000000
[Rope4_Seg02]
55 139.999985 0.000060 0.000119 37.885609 -26.033710 4.819174 139.999985
56 139.999985 0.000060 0.000119 33.328957 -25.410683 6.583819 139.999985
[Rope4_Seg03]
55 139.999924 0.000000 -0.000238 57.507618 -20.319242 23.361216 139.999924
56 139.999924 0.000000 -0.000238 49.894539 -19.229134 21.672987 139.999924
[Rope4_Seg04]
55 139.999985 0.000000 0.000119 24.606445 15.665582 40.890015 139.999985
56 139.999985 0.000000 0.000119 27.034586 9.877462 42.636551 139.999985
[Rope4_Seg05]
55 139.999802 -0.000060 -0.000119 3.896648 16.236990 18.182257 139.999802
56 139.999802 -0.000060 -0.000119 4.836596 15.825168 20.828421 139.999802
[Rope4_Seg06]
55 139.999924 0.000000 0.000060 0.065403 5.020522 5.293484 139.999924
56 139.999924 0.000000 0.000060 0.065668 4.852826 5.833262 139.999924
[Rope4_Seg07]
55 139.999802 0.000000 0.000000 -0.076237 2.764460 2.923893 139.999802
56 139.999802 0.000000 0.000000 -0.108224 2.637016 3.180501 139.999802
[Rope4_Seg08]
55 139.999924 0.000000 0.000119 -1.628928 1.528556 1.622271 139.999924
56 139.999924 0.000000 0.000119 -1.653060 1.451716 1.756617 139.999924
[Rope4_Seg09]
55 90.185791 0.000060 0.000060 -135.617828 2.228885 0.850567 90.185791
56 90.185791 0.000060 0.000060 -135.617828 2.228885 0.850567 90.185791
[L_rear_hand01]
55 101.696655 -8.392275 -7.654577 -12.874829 -36.868488 107.832764 102.329041
56 101.696655 -8.392275 -7.654577 -12.874829 -36.868488 107.832764 102.329041
[L_rear_hand02]
55 102.726799 -1.568258 5.773216 71.484581 71.816628 158.486160 102.900848
56 102.726799 -1.568258 5.773216 71.484581 71.816628 158.486160 102.900848
[L_rear_hand03]
55 104.552910 9.721220 -10.420293 -177.714203 -24.565960 -106.089035 105.519653
56 104.552910 9.721220 -10.420293 -177.714203 -24.565960 -106.089035 105.519653
